<?xml version="1.0" standalone="no"?>
<!DOCTYPE svg PUBLIC "-//W3C//DTD SVG 20010904//EN"
 "http://www.w3.org/TR/2001/REC-SVG-20010904/DTD/svg10.dtd">
<svg version="1.0" xmlns="http://www.w3.org/2000/svg"
 width="700.000000pt" height="700.000000pt" viewBox="0 0 700.000000 700.000000"
 preserveAspectRatio="xMidYMid meet">
<metadata>
Created by potrace 1.11, written by Peter Selinger 2001-2013
</metadata>
<g transform="translate(0.000000,700.000000) scale(0.100000,-0.100000)"
fill="#000000" stroke="none">
<path d="M6180 6732 c-92 -12 -208 -73 -282 -146 -194 -192 -201 -499 -16
-702 142 -154 358 -207 552 -133 114 43 213 130 269 238 42 80 57 131 61 214
12 225 -137 437 -359 512 -47 15 -170 25 -225 17z"/>
<path d="M4209 6466 c-2 -2 -35 -6 -74 -10 -92 -8 -149 -15 -211 -27 -28 -5
-64 -12 -80 -15 -36 -6 -199 -49 -279 -74 -205 -63 -443 -176 -642 -306 -85
-55 -124 -101 -141 -165 l-8 -34 -330 -118 c-181 -66 -385 -139 -454 -164 -69
-25 -136 -48 -150 -53 -14 -5 -99 -35 -190 -68 -91 -33 -331 -119 -535 -192
-203 -72 -379 -135 -390 -140 -11 -5 -67 -25 -125 -45 -58 -20 -121 -43 -140
-50 -19 -7 -62 -23 -95 -35 -93 -34 -106 -42 -123 -76 -41 -88 61 -156 167
-111 20 9 126 48 236 87 331 119 419 151 435 157 8 3 17 7 20 7 8 2 240 86
320 116 41 16 260 95 485 176 226 81 531 191 679 244 l269 97 38 -19 c44 -21
129 -24 180 -6 19 6 66 32 104 56 221 142 543 267 800 311 105 18 128 21 210
28 153 13 505 2 505 -16 0 -4 -28 -26 -62 -48 -35 -23 -203 -133 -374 -245
-171 -111 -317 -207 -326 -213 -8 -5 -33 -22 -54 -36 -22 -15 -121 -79 -219
-144 -436 -286 -450 -296 -488 -367 -14 -27 -189 -572 -202 -629 -2 -9 -22
-77 -45 -150 -69 -218 -108 -343 -114 -364 -4 -14 -63 -48 -198 -114 -764
-374 -1035 -513 -1072 -548 -106 -103 -121 -280 -35 -408 86 -127 276 -168
419 -89 14 7 312 155 662 328 688 340 705 350 752 450 22 47 72 201 148 451
17 55 33 106 37 113 7 11 47 -119 112 -358 9 -36 50 -177 89 -315 73 -254 81
-282 82 -300 1 -5 -18 -41 -42 -80 -23 -38 -51 -86 -62 -105 -11 -19 -30 -51
-41 -70 -12 -19 -29 -47 -37 -62 -12 -22 -338 -574 -371 -628 -134 -223 -158
-281 -153 -366 8 -128 89 -242 201 -284 173 -65 337 -1 436 170 18 30 37 63
42 72 6 9 23 41 39 70 15 29 33 59 39 66 6 8 32 50 57 95 26 45 87 152 137
237 49 85 121 209 159 275 39 66 108 185 154 265 133 228 137 252 74 472 -19
67 -37 128 -38 133 -10 38 -29 105 -37 130 -5 17 -25 86 -45 155 -19 69 -51
181 -71 250 -19 69 -39 139 -43 155 -5 17 -16 55 -24 85 -8 30 -12 58 -8 61 4
4 116 78 249 166 133 87 430 281 659 431 230 151 423 276 429 278 6 3 12 -1
12 -8 0 -7 8 -51 17 -98 72 -363 184 -647 380 -962 143 -230 401 -512 613
-671 82 -61 83 -63 84 -107 0 -25 2 -63 4 -85 1 -22 6 -119 9 -215 4 -96 9
-195 11 -220 2 -25 7 -117 10 -205 4 -88 8 -185 10 -215 2 -30 7 -127 11 -215
3 -88 8 -182 9 -210 1 -27 5 -126 9 -220 4 -93 9 -190 11 -215 3 -25 7 -112
11 -195 3 -82 7 -184 9 -225 2 -41 7 -140 10 -220 9 -231 14 -273 34 -300 39
-53 137 -48 160 8 7 16 9 60 6 107 -3 44 -7 134 -10 200 -12 271 -15 345 -20
440 -3 55 -8 147 -10 205 -2 58 -7 152 -10 210 -6 131 -14 290 -20 440 -3 63
-8 162 -10 220 -8 155 -18 370 -30 635 -3 66 -8 161 -10 211 l-5 91 37 24 c73
48 100 122 77 212 -17 64 -46 100 -156 193 -160 135 -284 265 -401 422 -229
308 -388 692 -433 1047 -2 17 -6 51 -9 77 -4 25 -6 93 -5 150 3 258 2 263
-108 425 -33 49 -112 169 -177 268 -122 186 -147 217 -212 258 -76 48 -405
142 -593 170 -58 9 -123 19 -145 22 -45 7 -460 17 -466 11z"/>
<path d="M174 3430 c-21 -11 -46 -25 -55 -32 -29 -24 -51 -80 -51 -130 1 -83
30 -120 187 -240 77 -59 145 -111 150 -115 6 -5 57 -44 115 -88 58 -43 155
-117 215 -163 61 -46 160 -122 220 -168 61 -46 202 -154 315 -240 113 -86 248
-188 300 -227 52 -40 97 -74 100 -77 3 -3 48 -37 100 -77 52 -39 187 -141 300
-227 113 -86 284 -216 380 -288 96 -73 177 -135 180 -138 3 -3 39 -30 80 -61
41 -31 127 -96 190 -144 63 -49 171 -131 240 -183 69 -53 170 -130 225 -172
521 -397 525 -400 587 -400 21 0 148 27 281 61 133 33 249 62 257 64 8 2 74
18 147 35 107 26 131 35 128 49 -5 19 -51 184 -64 226 -5 17 -15 49 -21 73 -6
24 -17 42 -25 42 -7 0 -161 -34 -341 -76 -278 -64 -332 -74 -349 -64 -11 7
-72 53 -135 101 -63 49 -330 252 -592 452 -262 200 -489 373 -505 384 -15 12
-154 118 -308 235 -154 118 -336 256 -405 309 -69 52 -219 167 -335 255 -226
173 -353 269 -565 431 -74 57 -193 148 -265 202 -71 54 -211 161 -310 236 -99
75 -193 144 -210 152 -44 24 -115 25 -161 3z"/>
</g>
</svg>
